<svg width="321" height="88" viewBox="0 0 321 88" fill="none" xmlns="http://www.w3.org/2000/svg">
<path d="M44.4766 87.3613L44.3566 70.3212C42.4366 74.4812 39.5566 77.9213 35.7166 80.6413C31.8766 83.2813 27.7566 84.6013 23.3566 84.6013C19.0366 84.6013 15.1566 83.2413 11.7166 80.5213C8.27664 77.8013 5.55664 74.0812 3.55664 69.3612C1.55664 64.5612 0.556641 59.1612 0.556641 53.1612C0.556641 46.4412 1.79664 40.6012 4.27664 35.6412C6.83664 30.6812 10.3566 26.8812 14.8366 24.2412C19.3166 21.5212 24.4766 20.1612 30.3166 20.1612C33.5966 20.1612 36.2766 20.6812 38.3566 21.7212C40.4366 22.6812 42.3166 24.3612 43.9966 26.7612V15.6012C43.9966 12.7212 43.0766 10.4012 41.2366 8.64121C39.4766 6.88121 37.1566 6.00121 34.2766 6.00121V4.80121H46.5166C50.5166 4.80121 53.5566 4.40121 55.6366 3.60121C57.7166 2.80121 59.1966 1.68121 60.0766 0.241211H61.2766V72.0013C61.2766 74.8813 62.1566 77.2013 63.9166 78.9613C65.6766 80.7213 68.0366 81.6013 70.9966 81.6013V82.8013H58.7566C55.2366 82.8013 52.4366 83.1613 50.3566 83.8813C48.3566 84.6013 46.7966 85.7613 45.6766 87.3613H44.4766ZM29.9566 79.8013C31.7966 79.8013 33.6366 79.2413 35.4766 78.1213C37.3966 76.9213 39.1166 75.3613 40.6366 73.4413C42.1566 71.5213 43.2766 69.4812 43.9966 67.3212V38.0412C43.5966 33.2412 42.3966 29.4012 40.3966 26.5212C38.4766 23.6412 35.9566 22.2012 32.8366 22.2012C28.6766 22.2012 25.4366 24.8412 23.1166 30.1212C20.8766 35.4012 19.7566 43.2012 19.7566 53.5212C19.7566 71.0412 23.1566 79.8013 29.9566 79.8013Z" fill="black"/>
<path d="M96.161 84.4813C91.281 84.4813 87.361 83.1613 84.401 80.5213C81.441 77.8813 79.961 74.4012 79.961 70.0812C79.961 68.2412 80.281 66.5212 80.921 64.9212C81.561 63.2412 82.761 61.6012 84.521 60.0012C86.361 58.4012 88.881 56.7612 92.081 55.0812C95.281 53.3212 99.521 51.4812 104.801 49.5612L115.961 45.4812V36.4812C115.961 31.9212 115.241 28.3212 113.801 25.6812C112.361 22.9612 110.361 21.6012 107.801 21.6012C104.761 21.6812 102.161 23.6812 100.001 27.6012C97.921 31.5212 96.521 36.9612 95.801 43.9212L82.841 36.4812C84.201 33.2012 86.281 30.3212 89.081 27.8412C91.881 25.3612 95.081 23.4412 98.681 22.0812C102.361 20.7212 106.201 20.0412 110.201 20.0412C117.001 20.0412 122.521 21.9612 126.761 25.8012C131.081 29.5612 133.241 34.7212 133.241 41.2812V70.2012C133.241 74.8412 134.801 77.1613 137.921 77.1613C139.761 77.1613 141.561 76.1613 143.321 74.1613L144.281 75.0013C142.201 77.8013 139.681 80.0813 136.721 81.8413C133.761 83.6013 130.881 84.4813 128.081 84.4813C125.041 84.4813 122.401 83.4413 120.161 81.3613C118.001 79.2813 116.641 76.5213 116.081 73.0813C112.161 77.0813 108.721 80.0013 105.761 81.8413C102.881 83.6013 99.681 84.4813 96.161 84.4813ZM105.161 77.0413C106.921 77.0413 108.601 76.6013 110.201 75.7213C111.881 74.8413 113.761 73.4012 115.841 71.4012L115.961 47.0412L111.161 48.8412C107.081 50.3612 103.961 51.9212 101.801 53.5212C99.641 55.0412 98.121 56.7612 97.241 58.6812C96.441 60.6012 96.041 62.8012 96.041 65.2812C96.041 68.7212 96.881 71.5613 98.561 73.8013C100.321 75.9613 102.521 77.0413 105.161 77.0413Z" fill="black"/>
<path d="M175.215 84.4813C173.135 84.4813 171.575 84.4013 170.535 84.2413C169.495 84.0813 168.495 83.8813 167.535 83.6413C166.655 83.4013 165.455 83.2013 163.935 83.0413C162.415 82.8813 160.095 82.8013 156.975 82.8013L154.095 60.2412H155.655C156.935 67.7612 159.335 73.4413 162.855 77.2813C166.375 81.0413 170.215 82.9213 174.375 82.9213C178.455 82.9213 181.535 82.0813 183.615 80.4013C185.775 78.7213 186.855 76.4413 186.855 73.5613C186.855 71.7213 186.375 70.1212 185.415 68.7612C184.535 67.3212 182.975 65.8812 180.735 64.4412C178.495 62.9212 175.455 61.1212 171.615 59.0412L168.135 57.1212C163.735 54.6412 160.455 51.7612 158.295 48.4812C156.215 45.1212 155.175 41.5212 155.175 37.6812C155.175 32.2412 157.135 27.9612 161.055 24.8412C165.055 21.7212 170.375 20.1612 177.015 20.1612C178.695 20.1612 180.055 20.2412 181.095 20.4012C182.135 20.5612 183.135 20.7612 184.095 21.0012C185.055 21.2412 186.255 21.4412 187.695 21.6012C189.135 21.7612 191.055 21.8412 193.455 21.8412L195.135 41.1612H193.695C193.215 37.4012 192.135 34.0812 190.455 31.2012C188.855 28.2412 186.935 25.9612 184.695 24.3612C182.455 22.6812 180.175 21.8412 177.855 21.8412C174.815 21.8412 172.375 22.6412 170.535 24.2412C168.775 25.8412 167.895 28.0812 167.895 30.9612C167.895 33.1212 168.575 35.1212 169.935 36.9612C171.375 38.7212 174.095 40.6412 178.095 42.7212L181.695 44.5212C187.295 47.4012 191.375 50.4012 193.935 53.5212C196.495 56.6412 197.775 60.6412 197.775 65.5212C197.775 78.0012 190.255 84.3213 175.215 84.4813Z" fill="black"/>
<path d="M206.713 82.8013V81.6013C209.513 81.6013 211.593 81.0413 212.953 79.9213C214.393 78.7213 215.313 77.2013 215.713 75.3613C216.193 73.5213 216.433 71.5212 216.433 69.3612V15.6012C216.433 12.7212 215.513 10.4012 213.673 8.64121C211.913 6.88121 209.593 6.00121 206.713 6.00121V4.80121H218.953C223.033 4.80121 226.153 4.36121 228.313 3.48121C230.313 2.60121 231.713 1.52121 232.513 0.241211H233.713V33.8412C235.873 29.6012 239.033 26.2812 243.193 23.8812C247.353 21.4012 251.793 20.1612 256.513 20.1612C260.273 20.1612 263.473 21.0412 266.113 22.8012C268.753 24.4812 270.753 26.7612 272.113 29.6412C273.553 32.5212 274.273 35.7612 274.273 39.3612V72.0013C274.273 74.9613 275.153 77.3213 276.913 79.0813C278.753 80.7613 281.113 81.6013 283.993 81.6013V82.8013H247.393V81.6013C250.273 81.6013 252.593 80.7613 254.353 79.0813C256.193 77.3213 257.113 74.9613 257.113 72.0013V38.1612C257.113 36.4012 256.873 34.5212 256.393 32.5212C255.913 30.4412 255.033 28.6812 253.753 27.2412C252.553 25.7212 250.833 24.9612 248.593 24.9612C246.513 24.9612 244.513 25.6012 242.593 26.8812C240.753 28.0812 239.073 29.6012 237.553 31.4412C236.033 33.2812 234.753 35.1212 233.713 36.9612V69.3612C233.713 71.5212 233.913 73.5213 234.313 75.3613C234.793 77.2013 235.713 78.7213 237.073 79.9213C238.513 81.0413 240.633 81.6013 243.433 81.6013V82.8013H206.713Z" fill="black"/>
<path d="M308.316 79.7613C305.049 79.7613 302.249 78.5946 299.916 76.2613C297.583 73.9279 296.416 71.1279 296.416 67.8612C296.416 64.4079 297.629 61.5612 300.056 59.3212C302.483 57.0812 305.236 55.9612 308.316 55.9612C311.396 55.9612 314.149 57.0812 316.576 59.3212C319.003 61.5612 320.216 64.4079 320.216 67.8612C320.216 71.1279 319.049 73.9279 316.716 76.2613C314.383 78.5946 311.583 79.7613 308.316 79.7613Z" fill="#DC7F32"/>
</svg>
