<svg width="321" height="88" viewBox="0 0 321 88" fill="none" xmlns="http://www.w3.org/2000/svg">
<path d="M44.4766 87.265L44.3566 70.225C42.4366 74.385 39.5566 77.825 35.7166 80.545C31.8766 83.185 27.7566 84.505 23.3566 84.505C19.0366 84.505 15.1566 83.145 11.7166 80.425C8.27664 77.705 5.55664 73.985 3.55664 69.265C1.55664 64.465 0.556641 59.065 0.556641 53.065C0.556641 46.345 1.79664 40.505 4.27664 35.545C6.83664 30.585 10.3566 26.785 14.8366 24.145C19.3166 21.425 24.4766 20.065 30.3166 20.065C33.5966 20.065 36.2766 20.585 38.3566 21.625C40.4366 22.585 42.3166 24.265 43.9966 26.665V15.505C43.9966 12.625 43.0766 10.305 41.2366 8.54502C39.4766 6.78502 37.1566 5.90502 34.2766 5.90502V4.70502H46.5166C50.5166 4.70502 53.5566 4.30502 55.6366 3.50502C57.7166 2.70502 59.1966 1.58502 60.0766 0.14502H61.2766V71.905C61.2766 74.785 62.1566 77.105 63.9166 78.865C65.6766 80.625 68.0366 81.505 70.9966 81.505V82.705H58.7566C55.2366 82.705 52.4366 83.065 50.3566 83.785C48.3566 84.505 46.7966 85.665 45.6766 87.265H44.4766ZM29.9566 79.705C31.7966 79.705 33.6366 79.145 35.4766 78.025C37.3966 76.825 39.1166 75.265 40.6366 73.345C42.1566 71.425 43.2766 69.385 43.9966 67.225V37.945C43.5966 33.145 42.3966 29.305 40.3966 26.425C38.4766 23.545 35.9566 22.105 32.8366 22.105C28.6766 22.105 25.4366 24.745 23.1166 30.025C20.8766 35.305 19.7566 43.105 19.7566 53.425C19.7566 70.945 23.1566 79.705 29.9566 79.705Z" fill="white"/>
<path d="M96.161 84.385C91.281 84.385 87.361 83.065 84.401 80.425C81.441 77.785 79.961 74.305 79.961 69.985C79.961 68.145 80.281 66.425 80.921 64.825C81.561 63.145 82.761 61.505 84.521 59.905C86.361 58.305 88.881 56.665 92.081 54.985C95.281 53.225 99.521 51.385 104.801 49.465L115.961 45.385V36.385C115.961 31.825 115.241 28.225 113.801 25.585C112.361 22.865 110.361 21.505 107.801 21.505C104.761 21.585 102.161 23.585 100.001 27.505C97.921 31.425 96.521 36.865 95.801 43.825L82.841 36.385C84.201 33.105 86.281 30.225 89.081 27.745C91.881 25.265 95.081 23.345 98.681 21.985C102.361 20.625 106.201 19.945 110.201 19.945C117.001 19.945 122.521 21.865 126.761 25.705C131.081 29.465 133.241 34.625 133.241 41.185V70.105C133.241 74.745 134.801 77.065 137.921 77.065C139.761 77.065 141.561 76.065 143.321 74.065L144.281 74.905C142.201 77.705 139.681 79.985 136.721 81.745C133.761 83.505 130.881 84.385 128.081 84.385C125.041 84.385 122.401 83.345 120.161 81.265C118.001 79.185 116.641 76.425 116.081 72.985C112.161 76.985 108.721 79.905 105.761 81.745C102.881 83.505 99.681 84.385 96.161 84.385ZM105.161 76.945C106.921 76.945 108.601 76.505 110.201 75.625C111.881 74.745 113.761 73.305 115.841 71.305L115.961 46.945L111.161 48.745C107.081 50.265 103.961 51.825 101.801 53.425C99.641 54.945 98.121 56.665 97.241 58.585C96.441 60.505 96.041 62.705 96.041 65.185C96.041 68.625 96.881 71.465 98.561 73.705C100.321 75.865 102.521 76.945 105.161 76.945Z" fill="white"/>
<path d="M175.215 84.385C173.135 84.385 171.575 84.305 170.535 84.145C169.495 83.985 168.495 83.785 167.535 83.545C166.655 83.305 165.455 83.105 163.935 82.945C162.415 82.785 160.095 82.705 156.975 82.705L154.095 60.145H155.655C156.935 67.665 159.335 73.345 162.855 77.185C166.375 80.945 170.215 82.825 174.375 82.825C178.455 82.825 181.535 81.985 183.615 80.305C185.775 78.625 186.855 76.345 186.855 73.465C186.855 71.625 186.375 70.025 185.415 68.665C184.535 67.225 182.975 65.785 180.735 64.345C178.495 62.825 175.455 61.025 171.615 58.945L168.135 57.025C163.735 54.545 160.455 51.665 158.295 48.385C156.215 45.025 155.175 41.425 155.175 37.585C155.175 32.145 157.135 27.865 161.055 24.745C165.055 21.625 170.375 20.065 177.015 20.065C178.695 20.065 180.055 20.145 181.095 20.305C182.135 20.465 183.135 20.665 184.095 20.905C185.055 21.145 186.255 21.345 187.695 21.505C189.135 21.665 191.055 21.745 193.455 21.745L195.135 41.065H193.695C193.215 37.305 192.135 33.985 190.455 31.105C188.855 28.145 186.935 25.865 184.695 24.265C182.455 22.585 180.175 21.745 177.855 21.745C174.815 21.745 172.375 22.545 170.535 24.145C168.775 25.745 167.895 27.985 167.895 30.865C167.895 33.025 168.575 35.025 169.935 36.865C171.375 38.625 174.095 40.545 178.095 42.625L181.695 44.425C187.295 47.305 191.375 50.305 193.935 53.425C196.495 56.545 197.775 60.545 197.775 65.425C197.775 77.905 190.255 84.225 175.215 84.385Z" fill="white"/>
<path d="M206.713 82.705V81.505C209.513 81.505 211.593 80.945 212.953 79.825C214.393 78.625 215.313 77.105 215.713 75.265C216.193 73.425 216.433 71.425 216.433 69.265V15.505C216.433 12.625 215.513 10.305 213.673 8.54502C211.913 6.78502 209.593 5.90502 206.713 5.90502V4.70502H218.953C223.033 4.70502 226.153 4.26502 228.313 3.38502C230.313 2.50502 231.713 1.42502 232.513 0.14502H233.713V33.745C235.873 29.505 239.033 26.185 243.193 23.785C247.353 21.305 251.793 20.065 256.513 20.065C260.273 20.065 263.473 20.945 266.113 22.705C268.753 24.385 270.753 26.665 272.113 29.545C273.553 32.425 274.273 35.665 274.273 39.265V71.905C274.273 74.865 275.153 77.225 276.913 78.985C278.753 80.665 281.113 81.505 283.993 81.505V82.705H247.393V81.505C250.273 81.505 252.593 80.665 254.353 78.985C256.193 77.225 257.113 74.865 257.113 71.905V38.065C257.113 36.305 256.873 34.425 256.393 32.425C255.913 30.345 255.033 28.585 253.753 27.145C252.553 25.625 250.833 24.865 248.593 24.865C246.513 24.865 244.513 25.505 242.593 26.785C240.753 27.985 239.073 29.505 237.553 31.345C236.033 33.185 234.753 35.025 233.713 36.865V69.265C233.713 71.425 233.913 73.425 234.313 75.265C234.793 77.105 235.713 78.625 237.073 79.825C238.513 80.945 240.633 81.505 243.433 81.505V82.705H206.713Z" fill="white"/>
<path d="M308.316 84.665C305.049 84.665 302.249 83.4984 299.916 81.165C297.583 78.8317 296.416 76.0317 296.416 72.765C296.416 69.3117 297.629 66.465 300.056 64.225C302.483 61.985 305.236 60.865 308.316 60.865C311.396 60.865 314.149 61.985 316.576 64.225C319.003 66.465 320.216 69.3117 320.216 72.765C320.216 76.0317 319.049 78.8317 316.716 81.165C314.383 83.4984 311.583 84.665 308.316 84.665Z" fill="#D76B13"/>
</svg>
